<?xml version="1.0" encoding="UTF-8"?>
<!DOCTYPE svg PUBLIC "-//W3C//DTD SVG 1.1//EN" "http://www.w3.org/Graphics/SVG/1.1/DTD/svg11.dtd">
<svg xmlns="http://www.w3.org/2000/svg" version="1.1" width="512px" height="512px" style="shape-rendering:geometricPrecision; text-rendering:geometricPrecision; image-rendering:optimizeQuality; fill-rule:evenodd; clip-rule:evenodd" xmlns:xlink="http://www.w3.org/1999/xlink">
<g><path style="opacity:0.965" fill="#054775" d="M 228.5,-0.5 C 230.5,-0.5 232.5,-0.5 234.5,-0.5C 234.783,0.28913 235.283,0.955796 236,1.5C 236.667,8.83333 236.667,16.1667 236,23.5C 232.527,27.7173 229.527,27.384 227,22.5C 226.333,15.8333 226.333,9.16667 227,2.5C 227.513,1.47344 228.013,0.473444 228.5,-0.5 Z"/></g>
<g><path style="opacity:0.923" fill="#054674" d="M 285.5,13.5 C 291.023,13.5619 292.856,16.2286 291,21.5C 287.625,27.0846 284.125,32.5846 280.5,38C 275,39.1667 272.833,37 274,31.5C 277.123,24.8901 280.956,18.8901 285.5,13.5 Z"/></g>
<g><path style="opacity:0.917" fill="#054775" d="M 174.5,13.5 C 175.873,13.3433 177.207,13.51 178.5,14C 183.261,20.1857 187.261,26.8523 190.5,34C 189.407,38.2056 186.74,39.5389 182.5,38C 178.184,31.8679 174.517,25.3679 171.5,18.5C 172.092,16.5775 173.092,14.9108 174.5,13.5 Z"/></g>
<g><path style="opacity:0.977" fill="#064876" d="M 335.5,511.5 C 320.167,511.5 304.833,511.5 289.5,511.5C 283.12,508.947 278.954,504.28 277,497.5C 276.5,487.172 276.334,476.839 276.5,466.5C 250.167,466.5 223.833,466.5 197.5,466.5C 197.909,477.896 197.409,489.23 196,500.5C 193.588,505.748 189.754,509.414 184.5,511.5C 169.167,511.5 153.833,511.5 138.5,511.5C 133.524,508.689 129.691,504.689 127,499.5C 125.924,485.533 125.09,471.533 124.5,457.5C 79.6215,440.788 48.4548,410.122 31,365.5C 9.87139,298.846 24.3714,241.346 74.5,193C 102.16,169.772 134.16,157.105 170.5,155C 155.097,128.833 154.597,102.333 169,75.5C 190.912,45.0826 220.079,34.9159 256.5,45C 292.3,60.4239 308.134,87.5905 304,126.5C 302.469,136.426 298.969,145.593 293.5,154C 303.16,155.041 312.827,156.041 322.5,157C 334.753,159.426 346.753,162.426 358.5,166C 372.167,152.333 385.833,138.667 399.5,125C 402.347,124.056 404.847,124.556 407,126.5C 407.333,151.5 407.667,176.5 408,201.5C 429.092,222.679 442.592,248.012 448.5,277.5C 457.568,277.119 466.568,277.619 475.5,279C 482.149,282.314 486.649,287.481 489,294.5C 489.667,308.833 489.667,323.167 489,337.5C 487.025,345.477 482.192,350.977 474.5,354C 464.884,355.324 455.217,355.824 445.5,355.5C 429.666,405.503 397.166,439.837 348,458.5C 347.667,472.167 347.333,485.833 347,499.5C 344.309,504.689 340.476,508.689 335.5,511.5 Z"/></g>
<g><path style="opacity:0.934" fill="#064674" d="M 133.5,54.5 C 135.199,54.3398 136.866,54.5065 138.5,55C 143.833,58 149.167,61 154.5,64C 156.85,66.3728 157.017,68.8728 155,71.5C 152.936,72.5914 150.769,72.7581 148.5,72C 143.833,69.3333 139.167,66.6667 134.5,64C 130.956,61.1268 130.623,57.9601 133.5,54.5 Z"/></g>
<g><path style="opacity:0.925" fill="#064674" d="M 324.5,54.5 C 331.227,53.648 333.393,56.3147 331,62.5C 325.582,65.793 320.082,68.9597 314.5,72C 308.498,72.9931 306.332,70.4931 308,64.5C 313.647,61.2666 319.147,57.9333 324.5,54.5 Z"/></g>
<g><path style="opacity:0.999" fill="#0c4a78" d="M 219.5,106.5 C 220.058,107.79 221.058,108.623 222.5,109C 230.325,108.967 237.991,109.967 245.5,112C 257.131,119.807 259.631,129.974 253,142.5C 248.165,147.317 242.665,150.65 236.5,152.5C 236.666,156.846 236.499,161.179 236,165.5C 234.057,169.486 231.39,170.153 228,167.5C 227.501,161.843 227.334,156.176 227.5,150.5C 221.5,150.5 215.5,150.5 209.5,150.5C 206.027,148.437 205.694,145.937 208.5,143C 218.5,142.667 228.5,142.333 238.5,142C 246.708,139.421 249.541,133.921 247,125.5C 245.332,121.835 242.499,119.668 238.5,119C 224.804,121.472 214.47,116.972 207.5,105.5C 204.477,89.1956 211.144,79.8623 227.5,77.5C 227.334,72.1563 227.501,66.8229 228,61.5C 230.966,58.7348 233.633,59.0682 236,62.5C 236.499,67.4889 236.666,72.4889 236.5,77.5C 242.509,77.3338 248.509,77.5005 254.5,78C 257.167,80.6667 257.167,83.3333 254.5,86C 243.095,86.0659 231.762,86.7325 220.5,88C 215.847,91.7885 214.347,96.6218 216,102.5C 216.66,104.324 217.827,105.657 219.5,106.5 Z"/></g>
<g><path style="opacity:1" fill="#e2f2f9" d="M 294.5,101.5 C 294.5,103.167 294.5,104.833 294.5,106.5C 269.5,106.5 244.5,106.5 219.5,106.5C 217.827,105.657 216.66,104.324 216,102.5C 214.347,96.6218 215.847,91.7885 220.5,88C 231.762,86.7325 243.095,86.0659 254.5,86C 257.167,83.3333 257.167,80.6667 254.5,78C 248.509,77.5005 242.509,77.3338 236.5,77.5C 236.666,72.4889 236.499,67.4889 236,62.5C 233.633,59.0682 230.966,58.7348 228,61.5C 227.501,66.8229 227.334,72.1563 227.5,77.5C 211.144,79.8623 204.477,89.1956 207.5,105.5C 194.677,106.495 181.677,106.829 168.5,106.5C 168.5,105.5 168.5,104.5 168.5,103.5C 174.008,75.4892 190.675,57.9892 218.5,51C 249.59,46.4637 273.09,57.6304 289,84.5C 291.742,89.8909 293.575,95.5575 294.5,101.5 Z"/></g>
<g><path style="opacity:1" fill="#dbf1fb" d="M 294.5,101.5 C 297.898,117.601 295.398,132.935 287,147.5C 285.951,149.618 284.451,151.284 282.5,152.5C 267.167,152.5 251.833,152.5 236.5,152.5C 242.665,150.65 248.165,147.317 253,142.5C 259.631,129.974 257.131,119.807 245.5,112C 237.991,109.967 230.325,108.967 222.5,109C 221.058,108.623 220.058,107.79 219.5,106.5C 244.5,106.5 269.5,106.5 294.5,106.5C 294.5,104.833 294.5,103.167 294.5,101.5 Z"/></g>
<g><path style="opacity:1" fill="#dbf1fb" d="M 168.5,103.5 C 168.5,104.5 168.5,105.5 168.5,106.5C 181.677,106.829 194.677,106.495 207.5,105.5C 214.47,116.972 224.804,121.472 238.5,119C 242.499,119.668 245.332,121.835 247,125.5C 249.541,133.921 246.708,139.421 238.5,142C 228.5,142.333 218.5,142.667 208.5,143C 205.694,145.937 206.027,148.437 209.5,150.5C 214.985,151.327 220.652,151.827 226.5,152C 211.17,152.5 195.837,152.667 180.5,152.5C 169.424,137.864 165.424,121.53 168.5,103.5 Z"/></g>
<g><path style="opacity:0.999" fill="#d6f0fc" d="M 209.5,150.5 C 215.5,150.5 221.5,150.5 227.5,150.5C 227.334,156.176 227.501,161.843 228,167.5C 231.39,170.153 234.057,169.486 236,165.5C 236.499,161.179 236.666,156.846 236.5,152.5C 251.833,152.5 267.167,152.5 282.5,152.5C 270.118,169.859 253.118,178.526 231.5,178.5C 210.186,178.011 193.186,169.344 180.5,152.5C 195.837,152.667 211.17,152.5 226.5,152C 220.652,151.827 214.985,151.327 209.5,150.5 Z"/></g>
<g><path style="opacity:1" fill="#ade2f8" d="M 398.5,160.5 C 397.521,163.625 397.187,166.958 397.5,170.5C 387.652,170.827 377.986,170.494 368.5,169.5C 378.131,159.368 387.964,149.368 398,139.5C 398.5,146.492 398.666,153.492 398.5,160.5 Z"/></g>
<g><path style="opacity:1" fill="#a2def9" d="M 398.5,160.5 C 398.832,171.187 398.499,181.854 397.5,192.5C 387.686,184.758 377.352,177.758 366.5,171.5C 366.855,170.478 367.522,169.811 368.5,169.5C 377.986,170.494 387.652,170.827 397.5,170.5C 397.187,166.958 397.521,163.625 398.5,160.5 Z"/></g>
<g><path style="opacity:0.999" fill="#7bddf7" d="M 376.5,187.5 C 283.5,188.833 190.5,188.833 97.5,187.5C 122.062,171.441 149.062,163.608 178.5,164C 200.301,185.533 225.967,191.867 255.5,183C 266.768,179.056 276.435,172.723 284.5,164C 317.821,161.83 348.488,169.663 376.5,187.5 Z"/></g>
<g><path style="opacity:1" fill="#78dcf9" d="M 97.5,187.5 C 190.5,188.833 283.5,188.833 376.5,187.5C 388.337,194.664 398.671,203.664 407.5,214.5C 293.833,215.833 180.167,215.833 66.5,214.5C 75.3295,203.664 85.6628,194.664 97.5,187.5 Z"/></g>
<g><path style="opacity:1" fill="#064877" d="M 164.5,198.5 C 209.168,198.333 253.835,198.5 298.5,199C 301.306,200.305 302.14,202.472 301,205.5C 300.25,206.126 299.416,206.626 298.5,207C 253.833,207.667 209.167,207.667 164.5,207C 160.605,204.178 160.605,201.345 164.5,198.5 Z"/></g>
<g><path style="opacity:1" fill="#75daf9" d="M 66.5,214.5 C 180.167,215.833 293.833,215.833 407.5,214.5C 411.064,218.614 414.397,222.948 417.5,227.5C 297.167,228.833 176.833,228.833 56.5,227.5C 59.1183,222.587 62.4516,218.254 66.5,214.5 Z"/></g>
<g><path style="opacity:1" fill="#72d9fa" d="M 56.5,227.5 C 176.833,228.833 297.167,228.833 417.5,227.5C 421.921,233.334 425.588,239.668 428.5,246.5C 416.88,248.479 404.88,249.146 392.5,248.5C 382.279,237.61 370.612,235.777 357.5,243C 355.627,244.704 353.96,246.537 352.5,248.5C 249.833,248.5 147.167,248.5 44.5,248.5C 47.7083,240.98 51.7083,233.98 56.5,227.5 Z"/></g>
<g><path style="opacity:0.999" fill="#084978" d="M 392.5,248.5 C 398.355,259.509 397.355,269.842 389.5,279.5C 377.817,288.77 366.15,288.77 354.5,279.5C 348.864,272.491 347.031,264.491 349,255.5C 349.653,252.861 350.82,250.527 352.5,248.5C 353.96,246.537 355.627,244.704 357.5,243C 370.612,235.777 382.279,237.61 392.5,248.5 Z"/></g>
<g><path style="opacity:0.999" fill="#fafbfc" d="M 369.5,246.5 C 385.372,248.249 390.539,256.583 385,271.5C 376.957,280.314 368.623,280.647 360,272.5C 353.579,260.258 356.746,251.591 369.5,246.5 Z"/></g>
<g><path style="opacity:1" fill="#6cd6fa" d="M 428.5,246.5 C 433.929,256.117 437.596,266.45 439.5,277.5C 439.5,278.5 439.5,279.5 439.5,280.5C 422.658,280.83 405.992,280.497 389.5,279.5C 397.355,269.842 398.355,259.509 392.5,248.5C 404.88,249.146 416.88,248.479 428.5,246.5 Z"/></g>
<g><path style="opacity:1" fill="#6dd7fa" d="M 44.5,248.5 C 147.167,248.5 249.833,248.5 352.5,248.5C 350.82,250.527 349.653,252.861 349,255.5C 347.031,264.491 348.864,272.491 354.5,279.5C 274.668,280.499 194.668,280.833 114.5,280.5C 107.268,263.884 94.9344,258.051 77.5,263C 69.5749,266.364 64.5749,272.197 62.5,280.5C 53.1667,280.5 43.8333,280.5 34.5,280.5C 34.5,279.5 34.5,278.5 34.5,277.5C 36.2658,267.2 39.5991,257.533 44.5,248.5 Z"/></g>
<g><path style="opacity:1" fill="#67d4fa" d="M 34.5,277.5 C 34.5,278.5 34.5,279.5 34.5,280.5C 43.8333,280.5 53.1667,280.5 62.5,280.5C 61.42,283.743 61.2534,287.076 62,290.5C 64.1385,291.769 66.3052,291.769 68.5,290.5C 71.1539,272.342 81.1539,266.175 98.5,272C 106.514,278.527 108.681,286.694 105,296.5C 102.28,301.551 98.1135,304.718 92.5,306C 71.836,306.5 51.1694,306.667 30.5,306.5C 30.4556,296.508 31.7889,286.841 34.5,277.5 Z"/></g>
<g><path style="opacity:1" fill="#68d5fb" d="M 439.5,277.5 C 441.344,283.233 442.344,289.233 442.5,295.5C 442.5,296.833 442.5,298.167 442.5,299.5C 332.665,299.833 222.999,299.499 113.5,298.5C 115.492,292.576 115.825,286.576 114.5,280.5C 194.668,280.833 274.668,280.499 354.5,279.5C 366.15,288.77 377.817,288.77 389.5,279.5C 405.992,280.497 422.658,280.83 439.5,280.5C 439.5,279.5 439.5,278.5 439.5,277.5 Z"/></g>
<g><path style="opacity:1" fill="#9adaf9" d="M 456.5,286.5 C 456.5,306.167 456.5,325.833 456.5,345.5C 460.833,345.5 465.167,345.5 469.5,345.5C 462.687,346.491 455.687,346.825 448.5,346.5C 451.564,326.589 452.23,306.589 450.5,286.5C 452.5,286.5 454.5,286.5 456.5,286.5 Z"/></g>
<g><path style="opacity:1" fill="#ace2f9" d="M 456.5,286.5 C 461.179,286.334 465.845,286.501 470.5,287C 471.737,287.232 472.737,287.732 473.5,288.5C 472.168,297.475 471.502,306.809 471.5,316.5C 471.5,326.006 471.834,335.339 472.5,344.5C 471.791,345.404 470.791,345.737 469.5,345.5C 465.167,345.5 460.833,345.5 456.5,345.5C 456.5,325.833 456.5,306.167 456.5,286.5 Z"/></g>
<g><path style="opacity:1" fill="#b9e5f5" d="M 473.5,288.5 C 476.832,290.134 478.999,292.801 480,296.5C 480.667,309.833 480.667,323.167 480,336.5C 478.653,340.344 476.153,343.011 472.5,344.5C 471.834,335.339 471.5,326.006 471.5,316.5C 471.502,306.809 472.168,297.475 473.5,288.5 Z"/></g>
<g><path style="opacity:1" fill="#64d2fb" d="M 442.5,295.5 C 443.492,302.982 443.825,310.648 443.5,318.5C 305.763,318.832 168.097,318.498 30.5,317.5C 30.5,316.5 30.5,315.5 30.5,314.5C 51.8359,314.667 73.1693,314.5 94.5,314C 103.235,311.65 109.569,306.484 113.5,298.5C 222.999,299.499 332.665,299.833 442.5,299.5C 442.5,298.167 442.5,296.833 442.5,295.5 Z"/></g>
<g><path style="opacity:1" fill="#60d1fc" d="M 30.5,317.5 C 168.097,318.498 305.763,318.832 443.5,318.5C 442.78,329.763 440.78,340.763 437.5,351.5C 303.833,351.5 170.167,351.5 36.5,351.5C 32.8521,340.58 30.8521,329.247 30.5,317.5 Z"/></g>
<g><path style="opacity:1" fill="#5bcffc" d="M 36.5,351.5 C 170.167,351.5 303.833,351.5 437.5,351.5C 436.063,357.703 434.063,363.703 431.5,369.5C 301.833,369.5 172.167,369.5 42.5,369.5C 39.9048,363.715 37.9048,357.715 36.5,351.5 Z"/></g>
<g><path style="opacity:1" fill="#58cdfc" d="M 42.5,369.5 C 172.167,369.5 301.833,369.5 431.5,369.5C 429.072,374.693 426.405,379.693 423.5,384.5C 299.167,384.5 174.833,384.5 50.5,384.5C 47.0713,379.98 44.4046,374.98 42.5,369.5 Z"/></g>
<g><path style="opacity:1" fill="#54cbfd" d="M 50.5,384.5 C 174.833,384.5 299.167,384.5 423.5,384.5C 416.663,396.337 408.33,407.004 398.5,416.5C 290.833,416.5 183.167,416.5 75.5,416.5C 65.2375,407.291 56.9042,396.625 50.5,384.5 Z"/></g>
<g><path style="opacity:1" fill="#4ec8fe" d="M 75.5,416.5 C 183.167,416.5 290.833,416.5 398.5,416.5C 373.698,440.227 344.032,453.727 309.5,457C 260.5,457.667 211.5,457.667 162.5,457C 128.806,453.148 99.8063,439.648 75.5,416.5 Z"/></g>
<g><path style="opacity:1" fill="#99d8f7" d="M 188.5,476.5 C 187.549,475.081 187.216,473.415 187.5,471.5C 170.167,471.5 152.833,471.5 135.5,471.5C 135.5,475.833 135.5,480.167 135.5,484.5C 135.5,486.833 135.5,489.167 135.5,491.5C 135.5,492.5 135.5,493.5 135.5,494.5C 134.505,483.346 134.172,472.012 134.5,460.5C 152.213,464.917 170.213,466.584 188.5,465.5C 188.5,469.167 188.5,472.833 188.5,476.5 Z"/></g>
<g><path style="opacity:1" fill="#95d4f4" d="M 338.5,494.5 C 338.5,493.5 338.5,492.5 338.5,491.5C 338.5,489.167 338.5,486.833 338.5,484.5C 338.5,480.167 338.5,475.833 338.5,471.5C 320.833,471.5 303.167,471.5 285.5,471.5C 285.5,469.5 285.5,467.5 285.5,465.5C 303.748,466.324 321.748,464.657 339.5,460.5C 339.828,472.012 339.495,483.346 338.5,494.5 Z"/></g>
<g><path style="opacity:1" fill="#a8e1fa" d="M 188.5,476.5 C 188.5,479.167 188.5,481.833 188.5,484.5C 170.833,484.5 153.167,484.5 135.5,484.5C 135.5,480.167 135.5,475.833 135.5,471.5C 152.833,471.5 170.167,471.5 187.5,471.5C 187.216,473.415 187.549,475.081 188.5,476.5 Z"/></g>
<g><path style="opacity:1" fill="#a8e1fa" d="M 285.5,471.5 C 303.167,471.5 320.833,471.5 338.5,471.5C 338.5,475.833 338.5,480.167 338.5,484.5C 320.833,484.5 303.167,484.5 285.5,484.5C 285.5,480.167 285.5,475.833 285.5,471.5 Z"/></g>
<g><path style="opacity:0.999" fill="#b1e4f7" d="M 135.5,484.5 C 153.167,484.5 170.833,484.5 188.5,484.5C 188.815,488.371 188.482,492.038 187.5,495.5C 187.5,494.167 187.5,492.833 187.5,491.5C 170.167,491.5 152.833,491.5 135.5,491.5C 135.5,489.167 135.5,486.833 135.5,484.5 Z"/></g>
<g><path style="opacity:1" fill="#b2e4f7" d="M 285.5,484.5 C 303.167,484.5 320.833,484.5 338.5,484.5C 338.5,486.833 338.5,489.167 338.5,491.5C 320.833,491.5 303.167,491.5 285.5,491.5C 285.5,489.167 285.5,486.833 285.5,484.5 Z"/></g>
<g><path style="opacity:1" fill="#b6e2f1" d="M 135.5,491.5 C 152.833,491.5 170.167,491.5 187.5,491.5C 187.5,492.833 187.5,494.167 187.5,495.5C 186.752,499.417 184.418,501.917 180.5,503C 167.833,503.667 155.167,503.667 142.5,503C 138.471,501.478 136.137,498.645 135.5,494.5C 135.5,493.5 135.5,492.5 135.5,491.5 Z"/></g>
<g><path style="opacity:0.999" fill="#b7e3f1" d="M 285.5,491.5 C 303.167,491.5 320.833,491.5 338.5,491.5C 338.5,492.5 338.5,493.5 338.5,494.5C 337.314,499.185 334.314,502.018 329.5,503C 317.5,503.667 305.5,503.667 293.5,503C 287.856,501.196 285.189,497.362 285.5,491.5 Z"/></g>
</svg>
